<svg width="14" height="25" viewBox="0 0 14 25" fill="none" xmlns="http://www.w3.org/2000/svg">
<path d="M10.9062 23.715L0.374978 13.215C0.257221 13.1012 0.16664 12.9624 0.109978 12.8087C0.0566661 12.6583 0.0300169 12.4996 0.0312285 12.34C0.0300679 12.1804 0.0567157 12.0217 0.109978 11.8712C0.166678 11.7176 0.257254 11.5788 0.374978 11.465L10.9062 0.933746C11.1975 0.642496 11.5625 0.496246 12 0.496246C12.4375 0.496246 12.8125 0.652496 13.125 0.964996C13.4375 1.2775 13.5937 1.6425 13.5937 2.05875C13.5943 2.26339 13.5531 2.46599 13.4725 2.65409C13.3918 2.84219 13.2736 3.0118 13.125 3.1525L3.93748 12.34L13.125 21.5275C13.4162 21.8187 13.5625 22.1775 13.5625 22.605C13.5625 23.0325 13.4062 23.4025 13.0937 23.715C12.953 23.8636 12.7834 23.9819 12.5953 24.0625C12.4072 24.1431 12.2046 24.1844 12 24.1837C11.7953 24.1844 11.5927 24.1431 11.4046 24.0625C11.2165 23.9819 11.0469 23.8636 10.9062 23.715Z" fill="white"/>
</svg>
