<svg width="14" height="25" viewBox="0 0 14 25" fill="none" xmlns="http://www.w3.org/2000/svg">
<path d="M3.09377 0.964996L13.625 11.465C13.7428 11.5788 13.8334 11.7176 13.89 11.8712C13.9433 12.0217 13.97 12.1804 13.9688 12.34C13.9699 12.4996 13.9433 12.6583 13.89 12.8087C13.8333 12.9623 13.7427 13.1012 13.625 13.215L3.09377 23.7462C2.80252 24.0375 2.43752 24.1837 2.00002 24.1837C1.56252 24.1837 1.18752 24.0275 0.875023 23.715C0.562523 23.4025 0.406273 23.0375 0.406273 22.6212C0.405663 22.4166 0.446936 22.214 0.527549 22.0259C0.608162 21.8378 0.726412 21.6682 0.875023 21.5275L10.0625 12.34L0.875023 3.1525C0.583773 2.86125 0.437522 2.5025 0.437522 2.075C0.437522 1.6475 0.593772 1.2775 0.906272 0.964996C1.04696 0.816385 1.21658 0.698135 1.40468 0.617521C1.59277 0.536909 1.79538 0.495636 2.00002 0.496246C2.20467 0.495636 2.40727 0.536909 2.59537 0.617521C2.78347 0.698135 2.95308 0.816385 3.09377 0.964996Z" fill="white"/>
</svg>
