<svg width="0" height="0"><symbol xmlns="http://www.w3.org/2000/svg" xml:space="preserve" id="back" fill="#fff" stroke="#fff" viewBox="0 0 100 100"><g id="SVGRepo_iconCarrier"><g><path d="M74.656 56.818c3.895 3.729 5.788 8.795 5.788 15.491 0 1.104.896 2 2 2s2-.885 2-1.989c0-7.736-2.362-13.91-7.022-18.369-10.776-10.312-31.097-9.4-47.422-8.682-2.28.101-4.461.211-6.499.28L38.428 30.62a2 2 0 1 0-2.828-2.828L17.479 45.915a2 2 0 0 0 0 2.828l18.123 18.12c.391.391.902.586 1.414.586s1.024-.195 1.415-.586a2 2 0 0 0 0-2.828L24.142 49.75c1.915-.11 3.932-.261 6.033-.354 14.744-.648 34.939-1.708 44.481 7.422z"/></g></g></symbol><symbol xmlns="http://www.w3.org/2000/svg" id="bookmark" fill="inherit" viewBox="0 0 24 24"><path fill-rule="evenodd" stroke="#fff" stroke-linecap="round" stroke-linejoin="round" stroke-width="1.7" d="M19.939 6.004c0-2.822-1.93-3.953-4.707-3.953H8.71C6.018 2.051 4 3.105 4 5.816v15.102a.974.974 0 0 0 1.45.85l6.546-3.672 6.49 3.666a.974.974 0 0 0 1.453-.849V6.003Z" clip-rule="evenodd"/></symbol><symbol xmlns="http://www.w3.org/2000/svg" id="burger" fill="none" viewBox="0 0 20 20"><rect width="20" height="1.5" y="2.75" fill="#fff" rx="1"/><rect width="20" height="1.5" y="9.25" fill="#fff" rx="1"/><rect width="20" height="1.5" y="15.75" fill="#fff" rx="1"/></symbol><symbol xmlns="http://www.w3.org/2000/svg" id="check" fill="none" viewBox="0 0 24 24"><path fill="#fff" fill-rule="evenodd" d="M18.03 7.97a.75.75 0 0 1 0 1.06l-7 7a.75.75 0 0 1-1.06 0l-4-4a.75.75 0 1 1 1.06-1.06l3.47 3.47 6.47-6.47a.75.75 0 0 1 1.06 0Z" clip-rule="evenodd"/></symbol><symbol xmlns="http://www.w3.org/2000/svg" id="chevron" fill="inherit" viewBox="0 0 24 24"><path d="M15.125 21.1 6.7 12.7a.871.871 0 0 1-.212-.325A1.098 1.098 0 0 1 6.425 12a1.1 1.1 0 0 1 .063-.375.872.872 0 0 1 .212-.325l8.425-8.425c.233-.233.525-.35.875-.35s.65.125.9.375.375.542.375.875a1.2 1.2 0 0 1-.375.875L9.55 12l7.35 7.35c.233.233.35.52.35.862 0 .342-.125.638-.375.888a1.2 1.2 0 0 1-.875.375 1.2 1.2 0 0 1-.875-.375Z"/></symbol><symbol xmlns="http://www.w3.org/2000/svg" id="close" fill="inherit" viewBox="0 0 44 44"><path d="M43.064 40.183 2.88 0-.614 3.494 39.57 43.678l3.494-3.495Z"/><path d="M40.443 0 .26 40.184l3.494 3.494L43.937 3.494 40.443 0Z"/></symbol><symbol xmlns="http://www.w3.org/2000/svg" id="edit" fill="none" viewBox="0 0 24 24"><path stroke="#fff" stroke-linecap="round" stroke-linejoin="round" stroke-miterlimit="10" stroke-width="2" d="m13.26 3.6-8.21 8.69c-.31.33-.61.98-.67 1.43l-.37 3.24c-.13 1.17.71 1.97 1.87 1.77l3.22-.55c.45-.08 1.08-.41 1.39-.75l8.21-8.69c1.42-1.5 2.06-3.21-.15-5.3-2.2-2.07-3.87-1.34-5.29.16Z"/><path stroke="#fff" stroke-linecap="round" stroke-linejoin="round" stroke-miterlimit="10" stroke-width="2" d="M11.89 5.05a6.126 6.126 0 0 0 5.45 5.15M3 22h18"/></symbol><symbol xmlns="http://www.w3.org/2000/svg" id="filters" fill="none" viewBox="0 0 24 24"><path stroke="#fff" stroke-linecap="round" stroke-linejoin="round" stroke-miterlimit="10" stroke-width="1.5" d="M22 6.5h-6m-10 0H2m8 3.5a3.5 3.5 0 1 0 0-7 3.5 3.5 0 0 0 0 7Zm12 7.5h-4m-10 0H2M14 21a3.5 3.5 0 1 0 0-7 3.5 3.5 0 0 0 0 7Z"/></symbol><symbol xmlns="http://www.w3.org/2000/svg" id="link" fill="none" viewBox="0 0 24 24"><path stroke="#fff" stroke-linecap="round" stroke-linejoin="round" stroke-width="1.5" d="M14.99 17.5h1.51c3.02 0 5.5-2.47 5.5-5.5 0-3.02-2.47-5.5-5.5-5.5h-1.51M9 6.5H7.5A5.51 5.51 0 0 0 2 12c0 3.02 2.47 5.5 5.5 5.5H9M8 12h8"/></symbol><symbol xmlns="http://www.w3.org/2000/svg" id="play" fill="none" viewBox="0 0 24 24"><path stroke="#fff" stroke-linecap="round" stroke-linejoin="round" stroke-miterlimit="10" stroke-width="1.7" d="M4 12V8.44c0-4.42 3.13-6.23 6.96-4.02l3.09 1.78 3.09 1.78c3.83 2.21 3.83 5.83 0 8.04l-3.09 1.78-3.09 1.78C7.13 21.79 4 19.98 4 15.56V12Z"/></symbol><symbol xmlns="http://www.w3.org/2000/svg" id="profile" fill="none" viewBox="0 0 24 24"><path stroke="#fff" stroke-linecap="round" stroke-linejoin="round" stroke-width="1.5" d="M12.12 12.78a.963.963 0 0 0-.24 0 3.27 3.27 0 0 1-3.16-3.27c0-1.81 1.46-3.28 3.28-3.28a3.276 3.276 0 0 1 .12 6.55Zm6.62 6.6A9.934 9.934 0 0 1 12 22c-2.6 0-4.96-.99-6.74-2.62.1-.94.7-1.86 1.77-2.58 2.74-1.82 7.22-1.82 9.94 0 1.07.72 1.67 1.64 1.77 2.58Z"/><path stroke="#fff" stroke-linecap="round" stroke-linejoin="round" stroke-width="1.5" d="M12 22c5.523 0 10-4.477 10-10S17.523 2 12 2 2 6.477 2 12s4.477 10 10 10Z"/></symbol><symbol xmlns="http://www.w3.org/2000/svg" id="search" fill="none" viewBox="0 0 24 24"><path stroke="#fff" stroke-linecap="round" stroke-linejoin="round" stroke-width="1.5" d="M10 18a8 8 0 1 0 0-16 8 8 0 0 0 0 16Zm12 4-6-6"/></symbol><symbol xmlns="http://www.w3.org/2000/svg" id="share" fill="none" viewBox="0 0 24 24"><path stroke="#fff" stroke-linecap="round" stroke-linejoin="round" stroke-width="1.7" d="m9 13.5 6 3m0-9-6 3M18 21a3 3 0 1 1 0-6 3 3 0 0 1 0 6ZM6 15a3 3 0 1 1 0-6 3 3 0 0 1 0 6Zm12-6a3 3 0 1 1 0-6 3 3 0 0 1 0 6Z"/></symbol><symbol xmlns="http://www.w3.org/2000/svg" id="sort" fill="none" viewBox="0 0 24 24"><path stroke="#fff" stroke-linecap="round" stroke-width="1.5" d="M3 6h18M3 12h12M3 18h8"/></symbol><symbol xmlns="http://www.w3.org/2000/svg" id="star" fill="none" viewBox="0 0 24 24"><path stroke="#fff" stroke-linecap="round" stroke-linejoin="round" stroke-width="1.7" d="m13.73 3.51 1.76 3.52c.24.49.88.96 1.42 1.05l3.19.53c2.04.34 2.52 1.82 1.05 3.28l-2.48 2.48c-.42.42-.65 1.23-.52 1.81l.71 3.07c.56 2.43-.73 3.37-2.88 2.1l-2.99-1.77c-.54-.32-1.43-.32-1.98 0l-2.99 1.77c-2.14 1.27-3.44.32-2.88-2.1l.71-3.07c.13-.58-.1-1.39-.52-1.81l-2.48-2.48c-1.46-1.46-.99-2.94 1.05-3.28l3.19-.53c.53-.09 1.17-.56 1.41-1.05l1.76-3.52c.96-1.91 2.52-1.91 3.47 0Z"/></symbol><symbol xmlns="http://www.w3.org/2000/svg" id="volume-high" fill="none" viewBox="0 0 24 24"><path stroke="#fff" stroke-width="1.5" d="M2 10v4c0 2 1 3 3 3h1.43c.37 0 .74.11 1.06.3l2.92 1.83c2.52 1.58 4.59.43 4.59-2.54V7.41c0-2.98-2.07-4.12-4.59-2.54L7.49 6.7c-.32.19-.69.3-1.06.3H5c-2 0-3 1-3 3Z"/><path stroke="#fff" stroke-linecap="round" stroke-linejoin="round" stroke-width="1.5" d="M18 8a6.66 6.66 0 0 1 0 8m1.83-10.5a10.83 10.83 0 0 1 0 13"/></symbol><symbol xmlns="http://www.w3.org/2000/svg" id="volume-slash" fill="none" viewBox="0 0 24 24"><path stroke="#fff" stroke-linecap="round" stroke-linejoin="round" stroke-width="1.5" d="M15 8.37v-.96c0-2.98-2.07-4.12-4.59-2.54L7.49 6.7c-.32.19-.69.3-1.06.3H5c-2 0-3 1-3 3v4c0 2 1 3 3 3h2m3.41 2.13c2.52 1.58 4.59.43 4.59-2.54v-3.64m3.81-3.53c.9 2.15.63 4.66-.81 6.58m3.15-8.2a10.82 10.82 0 0 1-1.32 10.7M22 2 2 22"/></symbol><symbol xmlns="http://www.w3.org/2000/svg" id="cup" fill="none" viewBox="0 0 24 24"><path stroke="#fff" stroke-linecap="round" stroke-linejoin="round" stroke-width="1.5" d="M12.15 16.5v2.1"/><path stroke="#fff" stroke-miterlimit="10" stroke-width="1.5" d="M7.15 22h10v-1c0-1.1-.9-2-2-2h-6c-1.1 0-2 .9-2 2v1Z"/><path stroke="#fff" stroke-linecap="round" stroke-linejoin="round" stroke-width="1.5" d="M6.15 22h12M12 16c-3.87 0-7-3.13-7-7V6c0-2.21 1.79-4 4-4h6c2.21 0 4 1.79 4 4v3c0 3.87-3.13 7-7 7Z"/><path stroke="#fff" stroke-linecap="round" stroke-linejoin="round" stroke-width="1.5" d="M5.47 11.65c-.75-.24-1.41-.68-1.93-1.2-.9-1-1.5-2.2-1.5-3.6s1.1-2.5 2.5-2.5h.65c-.2.46-.3.97-.3 1.5v3c0 1 .21 1.94.58 2.8Zm13.06 0c.75-.24 1.41-.68 1.93-1.2.9-1 1.5-2.2 1.5-3.6s-1.1-2.5-2.5-2.5h-.65c.2.46.3.97.3 1.5v3c0 1-.21 1.94-.58 2.8Z"/></symbol><symbol xmlns="http://www.w3.org/2000/svg" id="fire" fill="none" viewBox="0 0 24 24"><path fill="#fff" fill-rule="evenodd" d="M10.507 1.508a.75.75 0 0 1 .734-.239c3.608.829 5.433 4.783 5.003 8.321-.166 1.376-.578 2.454-1.185 3.312l-.011.016c.138-.068.265-.141.384-.218.592-.385 1.026-.892 1.592-1.552l.211-.246a.75.75 0 0 1 1.238.151A7.25 7.25 0 1 1 8.024 8.26l.067-.068a.75.75 0 0 1 .114-.094c.865-.583 1.487-1.06 1.906-1.62.395-.529.638-1.175.638-2.154a5.73 5.73 0 0 0-.378-2.055.75.75 0 0 1 .135-.76Zm1.664 1.743c.052.35.079.708.079 1.072 0 1.268-.328 2.237-.937 3.052-.571.766-1.363 1.353-2.208 1.925l-.073.073a.75.75 0 0 1-.128.103 5.75 5.75 0 1 0 8.648 3.346c-.38.411-.8.809-1.303 1.136-.924.599-2.08.941-3.749.941a.75.75 0 0 1-.362-1.407c.679-.374 1.254-.831 1.697-1.456.44-.624.779-1.457.92-2.626.307-2.531-.74-5.029-2.584-6.16Z" clip-rule="evenodd"/></symbol><symbol xmlns="http://www.w3.org/2000/svg" id="happy" fill="none" viewBox="0 0 24 24"><path stroke="#fff" stroke-linecap="round" stroke-linejoin="round" stroke-width="1.5" d="M9 22h6c5 0 7-2 7-7V9c0-5-2-7-7-7H9C4 2 2 4 2 9v6c0 5 2 7 7 7Z"/><path stroke="#fff" stroke-linecap="round" stroke-linejoin="round" stroke-miterlimit="10" stroke-width="1.5" d="M15.5 9.75a1.5 1.5 0 1 0 0-3 1.5 1.5 0 0 0 0 3Zm-7 0a1.5 1.5 0 1 0 0-3 1.5 1.5 0 0 0 0 3Zm-.1 3.55h7.2c.5 0 .9.4.9.9 0 2.49-2.01 4.5-4.5 4.5s-4.5-2.01-4.5-4.5c0-.5.4-.9.9-.9Z"/></symbol><symbol xmlns="http://www.w3.org/2000/svg" id="hearts" fill="none" viewBox="0 0 24 24"><path stroke="#fff" stroke-linecap="round" stroke-linejoin="round" stroke-width="1.5" d="M19.86 8.09c0 .42-.03.83-.08 1.22a3.714 3.714 0 0 0-4.46 1.18A3.73 3.73 0 0 0 12.34 9c-2.05 0-3.71 1.67-3.71 3.74 0 2.68 1.42 4.73 3 6.12-.05.03-.1.04-.15.06-.3.11-.8.11-1.1 0C7.79 18.03 2 14.35 2 8.09 2 5.33 4.22 3.1 6.96 3.1c1.63 0 3.07.78 3.97 1.99A4.957 4.957 0 0 1 14.9 3.1c2.74 0 4.96 2.23 4.96 4.99Z"/><path stroke="#fff" stroke-linecap="round" stroke-linejoin="round" stroke-width="1.5" d="M22 12.74c0 4.68-4.33 7.44-6.27 8.1-.23.08-.6.08-.83 0-.83-.28-2.1-.95-3.27-1.98-1.58-1.39-3-3.44-3-6.12 0-2.07 1.66-3.74 3.71-3.74 1.22 0 2.3.59 2.98 1.49a3.714 3.714 0 0 1 4.46-1.18c1.31.58 2.22 1.89 2.22 3.43Z"/></symbol><symbol xmlns="http://www.w3.org/2000/svg" id="knife" fill="none" viewBox="0 0 24 24"><path fill="#fff" d="M1.89 1.35a.686.686 0 0 1 .45-.562.669.669 0 0 1 .701.167l12.154 12.48 6.858 7.041a.695.695 0 0 1 0 .969l-.728.748a3.453 3.453 0 0 1-4.978 0l-4.37-4.487-1.58 1.623a.671.671 0 0 1-1.007-.052l-3.87-4.863a17.23 17.23 0 0 1-3.127-6.147A17.505 17.505 0 0 1 1.89 1.35Zm0 0 .248.032-.248-.031Zm15.42 19.873-.17.167.17-.166a2.116 2.116 0 0 0 3.054 0l.257-.264-5.906-6.064-1.784 1.831 4.379 4.496ZM6.574 13.547l3.394 4.266 3.794-3.895L3.116 2.986c-.13 3.81 1.096 7.592 3.458 10.561Z"/></symbol><symbol xmlns="http://www.w3.org/2000/svg" id="map" fill="none" viewBox="0 0 24 24"><path stroke="#fff" stroke-linecap="round" stroke-linejoin="round" stroke-width="1.5" d="M2.29 7.78v9.73c0 1.9 1.35 2.68 2.99 1.74l2.35-1.34c.51-.29 1.36-.32 1.89-.05l5.25 2.63c.53.26 1.38.24 1.89-.05l4.33-2.48c.55-.32 1.01-1.1 1.01-1.74V6.49c0-1.9-1.35-2.68-2.99-1.74l-2.35 1.34c-.51.29-1.36.32-1.89.05L9.52 3.52c-.53-.26-1.38-.24-1.89.05L3.3 6.05c-.56.32-1.01 1.1-1.01 1.73ZM8.56 4v13m7.17-10.38V20"/></symbol><symbol xmlns="http://www.w3.org/2000/svg" id="music" fill="none" viewBox="0 0 24 24"><path fill="#fff" fill-rule="evenodd" d="M12 2.25a.75.75 0 0 0-.75.75v11.26a4.25 4.25 0 1 0 1.486 2.888.76.76 0 0 0 .014-.148V7.75H18a2.75 2.75 0 1 0 0-5.5h-6Zm.75 4H18a1.25 1.25 0 1 0 0-2.5h-5.25v2.5Zm-4.25 8.5a2.75 2.75 0 1 0 0 5.5 2.75 2.75 0 0 0 0-5.5Z" clip-rule="evenodd"/></symbol><symbol xmlns="http://www.w3.org/2000/svg" id="people" fill="none" viewBox="0 0 24 24"><path stroke="#fff" stroke-linecap="round" stroke-linejoin="round" stroke-width="1.5" d="M18 7.16a.605.605 0 0 0-.19 0 2.573 2.573 0 0 1-2.48-2.58c0-1.43 1.15-2.58 2.58-2.58a2.58 2.58 0 0 1 2.58 2.58A2.589 2.589 0 0 1 18 7.16Zm-1.03 7.28c1.37.23 2.88-.01 3.94-.72 1.41-.94 1.41-2.48 0-3.42-1.07-.71-2.6-.95-3.97-.71M5.97 7.16c.06-.01.13-.01.19 0a2.573 2.573 0 0 0 2.48-2.58C8.64 3.15 7.49 2 6.06 2a2.58 2.58 0 0 0-2.58 2.58c.01 1.4 1.11 2.53 2.49 2.58ZM7 14.44c-1.37.23-2.88-.01-3.94-.72-1.41-.94-1.41-2.48 0-3.42 1.07-.71 2.6-.95 3.97-.71M12 14.63a.605.605 0 0 0-.19 0 2.573 2.573 0 0 1-2.48-2.58c0-1.43 1.15-2.58 2.58-2.58a2.58 2.58 0 0 1 2.58 2.58c-.01 1.4-1.11 2.54-2.49 2.58Zm-2.91 3.15c-1.41.94-1.41 2.48 0 3.42 1.6 1.07 4.22 1.07 5.82 0 1.41-.94 1.41-2.48 0-3.42-1.59-1.06-4.22-1.06-5.82 0Z"/></symbol><symbol xmlns="http://www.w3.org/2000/svg" id="rocket" fill="none" stroke="currentColor" stroke-width="0" viewBox="0 0 15 15"><path fill="currentColor" fill-rule="evenodd" stroke="none" d="m6.854 3.854.8-.8c.644-.645 1.775-1.092 2.898-1.253a5.342 5.342 0 0 1 1.504-.02c.443.066.714.196.84.323.127.126.257.397.323.84.064.427.059.95-.02 1.504-.16 1.123-.608 2.254-1.253 2.898L7.5 11.793l-1.146-1.146a.5.5 0 1 0-.708.707l1.5 1.5a.5.5 0 0 0 .708 0l.547-.548 1.17 1.951a.5.5 0 0 0 .783.097l2-2a.5.5 0 0 0 .141-.425l-.465-3.252.624-.623c.855-.856 1.358-2.225 1.535-3.465.09-.627.1-1.25.019-1.794-.08-.528-.256-1.05-.604-1.399-.349-.348-.871-.525-1.4-.604a6.333 6.333 0 0 0-1.793.02C9.17.987 7.8 1.49 6.946 2.345l-.623.624-3.252-.465a.5.5 0 0 0-.425.141l-2 2a.5.5 0 0 0 .097.783l1.95 1.17-.547.547a.5.5 0 0 0 0 .708l1.5 1.5a.5.5 0 1 0 .708-.708L3.207 7.5l.647-.646 3-3Zm3.245 9.34-.97-1.617 2.017-2.016.324 2.262-1.37 1.37ZM3.423 5.87l2.016-2.016-2.262-.324-1.37 1.37 1.616.97Zm-1.07 4.484a.5.5 0 1 0-.707-.708l-1 1a.5.5 0 1 0 .708.707l1-1Zm1.5 1.5a.5.5 0 1 0-.707-.707l-2 2a.5.5 0 0 0 .708.707l2-2Zm1.5 1.5a.5.5 0 1 0-.707-.708l-1 1a.5.5 0 1 0 .708.707l1-1ZM9.5 6.748a1.249 1.249 0 1 0 0-2.498 1.249 1.249 0 0 0 0 2.498Z" clip-rule="evenodd"/></symbol><symbol xmlns="http://www.w3.org/2000/svg" id="tank" fill="none" viewBox="0 0 24 24"><path stroke="currentColor" stroke-linecap="round" stroke-linejoin="round" stroke-width="1.5" d="M18.464 11.933H4.857a3.402 3.402 0 1 0 0 6.804h13.607a3.402 3.402 0 0 0 0-6.804Zm-12.474 0 1.135-5.67h5.67l3.401 5.67M23 8.531h-8.844"/></symbol><symbol xmlns="http://www.w3.org/2000/svg" id="facebook" fill="none" viewBox="0 0 24 24"><rect width="24" height="24" fill="#337FFF" rx="12"/><path fill="#fff" d="m14.937 12.781.342-2.173h-2.107V9.196c0-.594.294-1.174 1.235-1.174h.971v-1.85a11.772 11.772 0 0 0-1.71-.147c-1.733 0-2.865 1.043-2.865 2.927v1.656H8.88v2.173h1.922v5.255h2.37v-5.255h1.764Z"/></symbol><symbol xmlns="http://www.w3.org/2000/svg" id="github" viewBox="0 0 20 20"><g><g id="Page-1" fill="none" fill-rule="evenodd" stroke="none" stroke-width="1"><g id="Dribbble-Light-Preview" fill="#fff" transform="translate(-140 -7559)"><g id="icons" transform="translate(56 160)"><path id="github-[#fff142]" d="M94 7399c5.523 0 10 4.59 10 10.253 0 4.529-2.862 8.371-6.833 9.728-.507.101-.687-.219-.687-.492 0-.338.012-1.442.012-2.814 0-.956-.32-1.58-.679-1.898 2.227-.254 4.567-1.121 4.567-5.059 0-1.12-.388-2.034-1.03-2.752.104-.259.447-1.302-.098-2.714 0 0-.838-.275-2.747 1.051a9.396 9.396 0 0 0-2.505-.345 9.375 9.375 0 0 0-2.503.345c-1.911-1.326-2.751-1.051-2.751-1.051-.543 1.412-.2 2.455-.097 2.714-.639.718-1.03 1.632-1.03 2.752 0 3.928 2.335 4.808 4.556 5.067-.286.256-.545.708-.635 1.371-.57.262-2.018.715-2.91-.852 0 0-.529-.985-1.533-1.057 0 0-.975-.013-.068.623 0 0 .655.315 1.11 1.5 0 0 .587 1.83 3.369 1.21.005.857.014 1.665.014 1.909 0 .271-.184.588-.683.493-3.974-1.355-6.839-5.199-6.839-9.729 0-5.663 4.478-10.253 10-10.253"/></g></g></g></g></symbol><symbol xmlns="http://www.w3.org/2000/svg" id="gmail" fill="none" viewBox="0 0 92 92"><rect width="91.32" height="92" fill="#fff" rx="45.66"/><path fill="#4285F4" d="M22.635 66h8.483V45.4L19 36.31v26.055A3.634 3.634 0 0 0 22.635 66Z"/><path fill="#34A853" d="M60.201 66h8.483a3.634 3.634 0 0 0 3.635-3.635V36.31L60.201 45.4"/><path fill="#FBBC04" d="M60.201 29.646v15.753l12.118-9.088v-4.848c0-4.495-5.132-7.058-8.725-4.362"/><path fill="#EA4335" d="M31.117 45.4V29.644L45.66 40.552l14.542-10.907V45.4L45.659 56.306"/><path fill="#C5221F" d="M19 31.463v4.848l12.118 9.088V29.646L27.725 27.1C24.126 24.405 19 26.968 19 31.464"/></symbol><symbol xmlns="http://www.w3.org/2000/svg" id="telegram" fill="none" viewBox="0 0 24 25"><rect width="24" height="24" y=".562" fill="#34AADF" rx="12"/><path fill="#fff" d="M6.677 12.137s4.883-2.057 6.576-2.781c.65-.29 2.85-1.217 2.85-1.217s1.017-.405.932.58c-.028.405-.254 1.825-.48 3.36-.338 2.172-.705 4.547-.705 4.547s-.057.666-.537.782c-.48.116-1.27-.405-1.41-.521-.114-.087-2.118-1.39-2.851-2.028-.198-.174-.424-.521.028-.927a106.85 106.85 0 0 0 2.963-2.896c.339-.348.678-1.159-.734-.174a240.426 240.426 0 0 1-3.98 2.752s-.45.29-1.297.029c-.847-.26-1.835-.609-1.835-.609s-.677-.434.48-.897Z"/></symbol><symbol xmlns="http://www.w3.org/2000/svg" id="viber" fill="none" viewBox="0 0 24 25"><rect width="24" height="24" y=".562" fill="#754A91" rx="12"/><path fill="#fff" d="M9.2 17.467v-.603a.06.06 0 0 0-.031-.064 3.486 3.486 0 0 1-1.383-.746 3.267 3.267 0 0 1-.7-.899 4.883 4.883 0 0 1-.497-1.558 11.408 11.408 0 0 1-.098-2.058c.006-.32.023-.637.06-.957a5.783 5.783 0 0 1 .459-1.766A3.06 3.06 0 0 1 8.555 7.26a6.42 6.42 0 0 1 1.476-.464 10.509 10.509 0 0 1 1.512-.172c.458-.016.916-.01 1.373.02a8.012 8.012 0 0 1 1.929.32c.465.132.908.333 1.313.596.395.268.714.632.928 1.056.251.496.422 1.028.506 1.577.055.326.09.654.108.984a13.618 13.618 0 0 1-.096 2.427 4.422 4.422 0 0 1-.546 1.703 3.162 3.162 0 0 1-1.736 1.411 8.022 8.022 0 0 1-1.545.37 12.075 12.075 0 0 1-2.05.112c-.168 0-.335-.017-.502-.031a.085.085 0 0 0-.086.036c-.338.403-.69.794-1.043 1.184a.985.985 0 0 1-.221.182.416.416 0 0 1-.623-.23 1.083 1.083 0 0 1-.052-.338v-.536Zm.408.764.043-.04.768-.844.884-.975a.14.14 0 0 1 .129-.056c.1.01.2.013.301.014.35 0 .698 0 1.047-.024.318-.025.634-.063.948-.112a9.686 9.686 0 0 0 1.003-.229c.735-.195 1.304-.614 1.661-1.292.211-.417.343-.869.39-1.333.056-.437.09-.877.1-1.318a8.454 8.454 0 0 0-.113-1.654 4.649 4.649 0 0 0-.342-1.149c-.208-.455-.502-.832-.954-1.074-.695-.372-1.447-.537-2.221-.622a9.402 9.402 0 0 0-.66-.044 11.78 11.78 0 0 0-1.355.007 8.192 8.192 0 0 0-.966.13c-.47.084-.924.237-1.348.454a2.439 2.439 0 0 0-.66.484A3.03 3.03 0 0 0 7.6 9.745a6.09 6.09 0 0 0-.246 1.582c-.03.536-.022 1.073.02 1.608.027.318.081.634.161.943.12.482.351.93.677 1.307.35.385.805.664 1.309.805.063.019.092.04.092.112-.006.262 0 .524 0 .786l-.005 1.343Z"/><path fill="#fff" d="M8.965 10.1c-.007-.2.103-.344.235-.474a3.31 3.31 0 0 1 .573-.436.463.463 0 0 1 .595.096c.25.26.473.544.668.848.096.136.168.288.215.448a.362.362 0 0 1-.092.358 3.259 3.259 0 0 1-.339.287.387.387 0 0 0-.133.407c.074.344.24.662.483.92.294.355.673.633 1.102.807.106.054.227.07.343.046a.315.315 0 0 0 .162-.104c.064-.081.134-.16.192-.246a.508.508 0 0 1 .694-.136c.312.18.606.386.878.62.065.054.132.107.196.162a.433.433 0 0 1 .14.506 1.34 1.34 0 0 1-.244.404c-.13.18-.296.331-.488.445a.685.685 0 0 1-.61.039 8.076 8.076 0 0 1-2.06-1.2 8.022 8.022 0 0 1-1.58-1.73 7.158 7.158 0 0 1-.873-1.74 2.201 2.201 0 0 1-.056-.227.483.483 0 0 1-.001-.1Zm3.173-.968a2.67 2.67 0 0 1 1.69.642c.47.404.782.958.882 1.567.04.22.062.445.064.67 0 .052-.013.09-.07.096-.057.006-.072-.043-.072-.091a3.025 3.025 0 0 0-.276-1.32 2.441 2.441 0 0 0-.692-.872 2.47 2.47 0 0 0-1.012-.479 2.736 2.736 0 0 0-.596-.069.206.206 0 0 1-.058-.007.063.063 0 0 1-.045-.076.056.056 0 0 1 .018-.041.06.06 0 0 1 .042-.016c.041-.006.083-.004.125-.004Z"/><path fill="#fff" d="M13.91 11.6a1.607 1.607 0 0 0-.676-1.292 1.746 1.746 0 0 0-.816-.303c-.05-.007-.1-.01-.15-.015-.05-.005-.08-.026-.076-.077.005-.051.037-.07.092-.066.814.05 1.506.505 1.72 1.355.039.163.058.331.058.5v.045c0 .046-.03.075-.075.075a.073.073 0 0 1-.07-.08c-.008-.042-.006-.086-.006-.142Z"/><path fill="#fff" d="M12.484 10.586c.447.03.758.247.844.718.01.06.017.12.022.182 0 .049-.011.09-.066.09-.054 0-.072-.036-.074-.09a.88.88 0 0 0-.16-.505.681.681 0 0 0-.44-.243.992.992 0 0 0-.117-.015c-.064 0-.1-.032-.091-.081.008-.05.046-.058.082-.056Z"/></symbol><symbol xmlns="http://www.w3.org/2000/svg" id="vk" fill="none" viewBox="0 0 24 25"><rect width="24" height="24" y=".804" fill="#2787F5" rx="12"/><path fill="#fff" fill-rule="evenodd" d="M19.004 9.348c.101-.317 0-.55-.483-.55h-1.596c-.406 0-.593.201-.695.423 0 0-.812 1.856-1.961 3.062-.372.349-.542.46-.745.46-.1 0-.248-.111-.248-.428V9.348c0-.38-.118-.55-.456-.55h-2.508c-.254 0-.406.177-.406.344 0 .36.575.444.634 1.46v2.204c0 .484-.093.572-.296.572-.541 0-1.857-1.865-2.638-3.998-.153-.415-.307-.582-.715-.582H5.295c-.456 0-.547.201-.547.423 0 .397.541 2.364 2.52 4.966 1.319 1.776 3.177 2.74 4.868 2.74 1.015 0 1.14-.215 1.14-.583V15c0-.428.096-.513.418-.513.236 0 .642.11 1.59.968 1.082 1.015 1.26 1.47 1.869 1.47h1.596c.456 0 .684-.214.552-.636-.143-.42-.66-1.03-1.346-1.754-.372-.413-.93-.857-1.1-1.08-.236-.285-.168-.412 0-.665 0 0 1.946-2.57 2.149-3.443Z" clip-rule="evenodd"/></symbol><symbol xmlns="http://www.w3.org/2000/svg" id="whatsapp" fill="none" viewBox="0 0 92 92"><rect width="91.562" height="91.562" fill="#00D95F" rx="45.781"/><path fill="#fff" d="m22.89 66.976 3.285-12.213a22.586 22.586 0 0 1-2.37-15.637 22.615 22.615 0 0 1 8.469-13.365 22.683 22.683 0 0 1 29.62 1.915 22.593 22.593 0 0 1 2.301 29.544 22.66 22.66 0 0 1-13.276 8.628 22.69 22.69 0 0 1-15.691-2.164L22.89 66.976Zm12.932-7.862.763.451a18.337 18.337 0 0 0 22.178-2.693 18.256 18.256 0 0 0 3.062-22.094 18.302 18.302 0 0 0-8.839-7.805 18.34 18.34 0 0 0-11.772-.8 18.313 18.313 0 0 0-9.818 6.536 18.261 18.261 0 0 0-3.785 11.157 18.052 18.052 0 0 0 2.677 9.477l.478.787-1.836 6.817 6.892-1.834Z"/><path fill="#fff" fill-rule="evenodd" d="M54.34 47.003a3.778 3.778 0 0 0-3.233-.736c-.84.349-1.383 1.666-1.926 2.324a.802.802 0 0 1-1.035.232 14.644 14.644 0 0 1-7.32-6.261.876.876 0 0 1 .117-1.214 5.059 5.059 0 0 0 1.293-2.156 4.693 4.693 0 0 0-.595-2.582 6.042 6.042 0 0 0-1.875-2.827 2.59 2.59 0 0 0-2.78.426 5.706 5.706 0 0 0-1.979 4.518c.002.48.063.957.181 1.42.3 1.116.762 2.182 1.371 3.164a24.4 24.4 0 0 0 1.436 2.182 22.033 22.033 0 0 0 6.22 5.758 18.752 18.752 0 0 0 3.88 1.846 8.6 8.6 0 0 0 4.513.71 5.422 5.422 0 0 0 4.086-3.034 2.578 2.578 0 0 0 .194-1.55c-.233-1.07-1.668-1.703-2.548-2.22Z" clip-rule="evenodd"/></symbol></svg>